<svg xmlns="http://www.w3.org/2000/svg" width="32" height="32" viewBox="0 0 32 32" fill="none">
  <rect width="32" height="32" rx="8" fill="#C9A227"/>
  <g transform="translate(4, 4)">
    <path d="M14.106 5.553a2 2 0 0 0 1.788 0l3.659-1.83A1 1 0 0 1 21 4.619v12.764a1 1 0 0 1-.553.894l-4.553 2.277a2 2 0 0 1-1.788 0l-4.212-2.106a2 2 0 0 0-1.788 0l-3.659 1.83A1 1 0 0 1 3 19.381V6.618a1 1 0 0 1 .553-.894l4.553-2.277a2 2 0 0 1 1.788 0l4.212 2.106Z" stroke="#1A1A2E" stroke-width="2" stroke-linecap="round" stroke-linejoin="round"/>
    <path d="m9 3.5v13" stroke="#1A1A2E" stroke-width="2" stroke-linecap="round" stroke-linejoin="round"/>
    <path d="m15 7.5v13" stroke="#1A1A2E" stroke-width="2" stroke-linecap="round" stroke-linejoin="round"/>
  </g>
</svg>
